<?xml version="1.0" encoding="UTF-8" standalone="no"?>
<!-- Creator: CorelDRAW X7 -->

<svg
   xmlns:dc="http://purl.org/dc/elements/1.1/"
   xmlns:cc="http://creativecommons.org/ns#"
   xmlns:rdf="http://www.w3.org/1999/02/22-rdf-syntax-ns#"
   xmlns:svg="http://www.w3.org/2000/svg"
   xmlns="http://www.w3.org/2000/svg"
   xmlns:sodipodi="http://sodipodi.sourceforge.net/DTD/sodipodi-0.dtd"
   xmlns:inkscape="http://www.inkscape.org/namespaces/inkscape"
   xml:space="preserve"
   width="303"
   height="304"
   version="1.1"
   style="clip-rule:evenodd;fill-rule:evenodd;image-rendering:optimizeQuality;shape-rendering:geometricPrecision;text-rendering:geometricPrecision"
   viewBox="0 0 303 304"
   id="svg3563"
   inkscape:version="0.91 r"
   sodipodi:docname="windows-logo.svg"><metadata
     id="metadata3578"><rdf:RDF><cc:Work
         rdf:about=""><dc:format>image/svg+xml</dc:format><dc:type
           rdf:resource="http://purl.org/dc/dcmitype/StillImage" /><dc:title></dc:title></cc:Work></rdf:RDF></metadata><sodipodi:namedview
     pagecolor="#ffffff"
     bordercolor="#666666"
     borderopacity="1"
     objecttolerance="10"
     gridtolerance="10"
     guidetolerance="10"
     inkscape:pageopacity="0"
     inkscape:pageshadow="2"
     inkscape:window-width="640"
     inkscape:window-height="480"
     id="namedview3576"
     showgrid="false"
     fit-margin-left="15"
     fit-margin-top="15"
     fit-margin-bottom="15"
     fit-margin-right="15"
     inkscape:zoom="0.87591241"
     inkscape:cx="151.5"
     inkscape:cy="152"
     inkscape:window-x="0"
     inkscape:window-y="25"
     inkscape:window-maximized="0"
     inkscape:current-layer="svg3563" /><defs
     id="defs3565"><style
       type="text/css"
       id="style3567"><![CDATA[
    .fil0 {fill:#0078D6}
   ]]></style></defs><g
     id="Layer_x0020_1"
     transform="translate(15,15)"><metadata
       id="CorelCorpID_0Corel-Layer" /><g
       id="_26257872464"><path
         id="path5"
         class="fil0"
         d="M 125,22 C 174,14 224,7 273,0 l 0,2 0,128 c -49,0 -99,1 -148,1 0,-36 0,-73 0,-109 l 0,0 0,0 z"
         inkscape:connector-curvature="0"
         style="fill:#0078d6" /><path
         id="path7"
         class="fil0"
         d="m 0,39 c 37,-6 74,-11 112,-15 0,36 0,71 0,107 -38,0 -75,1 -112,1 l 0,-93 0,0 0,0 z"
         inkscape:connector-curvature="0"
         style="fill:#0078d6" /><path
         id="path29"
         class="fil0"
         d="m 0,143 c 37,0 74,1 112,0 0,36 0,72 0,108 C 74,246 37,241 0,236 l 0,-93 z"
         inkscape:connector-curvature="0"
         style="fill:#0078d6" /><path
         id="path31"
         class="fil0"
         d="m 125,144 c 49,0 99,0 148,0 l 0,124 0,6 c -49,-8 -99,-14 -148,-21 0,-36 0,-72 0,-109 l 0,0 z"
         inkscape:connector-curvature="0"
         style="fill:#0078d6" /></g></g></svg>